./gpu-test.sh: fork: retry: Resource temporarily unavailable
Input #0, lavfi, from 'smptebars=duration=60:size=1920x1080:rate=30':
  Duration: N/A, start: 0.000000, bitrate: N/A
  Stream #0:0: Video: rawvideo (I420 / 0x30323449), yuv420p, 1920x1080 [SAR 1:1 DAR 16:9], 30 tbr, 30 tbn, 30 tbc
Stream mapping:
  Stream #0:0 -> #0:0 (rawvideo (native) -> h264 (h264_nvenc))
Press [q] to stop, [?] for help
Output #0, mp4, to './test_results/temp_tests_gpu/test_test_50_36/output.mp4':
  Metadata:
    encoder         : Lavf58.76.100
  Stream #0:0: Video: h264 (Main) (avc1 / 0x31637661), yuv420p(tv, progressive), 1280x720 [SAR 1:1 DAR 16:9], q=2-31, 30 fps, 15360 tbn
    Metadata:
      encoder         : Lavc58.134.100 h264_nvenc
    Side data:
      cpb: bitrate max/min/avg: 3000000/0/0 buffer size: 4000000 vbv_delay: N/A
frame=    1 fps=0.0 q=0.0 size=       0kB time=00:00:00.00 bitrate=N/A speed=N/A    frame=    2 fps=0.3 q=0.0 size=       0kB time=00:00:00.00 bitrate=N/A speed=   0x    frame=  188 fps= 28 q=23.0 size=       0kB time=00:00:06.16 bitrate=   0.1kbits/s speed=0.911x    frame=  377 fps= 52 q=23.0 size=       0kB time=00:00:12.46 bitrate=   0.0kbits/s speed=1.71x    frame=  589 fps= 76 q=23.0 size=       0kB time=00:00:19.53 bitrate=   0.0kbits/s speed=2.51x    frame=  778 fps= 94 q=23.0 size=       0kB time=00:00:25.83 bitrate=   0.0kbits/s speed=3.12x    frame=  951 fps=108 q=23.0 size=       0kB time=00:00:31.60 bitrate=   0.0kbits/s speed= 3.6x    frame= 1093 fps=118 q=23.0 size=       0kB time=00:00:36.33 bitrate=   0.0kbits/s speed=3.92x    frame= 1234 fps=126 q=23.0 size=       0kB time=00:00:41.03 bitrate=   0.0kbits/s speed= 4.2x    frame= 1402 fps=136 q=23.0 size=       0kB time=00:00:46.63 bitrate=   0.0kbits/s speed=4.54x    frame= 1581 fps=147 q=23.0 size=       0kB time=00:00:52.60 bitrate=   0.0kbits/s speed=4.88x    frame= 1732 fps=154 q=23.0 size=       0kB time=00:00:57.63 bitrate=   0.0kbits/s speed=5.11x    [mp4 @ 0x57668b4da740] Starting second pass: moving the moov atom to the beginning of the file
frame= 1800 fps=156 q=23.0 Lsize=     142kB time=00:00:59.96 bitrate=  19.4kbits/s speed=5.21x    
video:134kB audio:0kB subtitle:0kB other streams:0kB global headers:0kB muxing overhead: 5.963520%
